<svg width="56" height="56" xmlns="http://www.w3.org/2000/svg" xml:space="preserve" version="1.1">

 <g>
  <title>Layer 1</title>
  <path id="svg_1" fill="#00A9CE" d="m55.32879,50.8c0,2.3 -0.53337,4.2 -1.17903,4.2l-52.3825,0c-0.64566,0 -1.17903,-1.9 -1.17903,-4.2l0,-46.7c0,-2.2 0.53337,-4.1 1.17903,-4.1l52.41057,0c0.64566,0 1.17903,1.9 1.17903,4.1l-0.02807,46.7l0,0z" class="st0"/>
  <path id="svg_2" fill="#FFFFFF" d="m180.00845,22.8zm-141.6,15.4c1.1,-1.1 1.7,-2.3 1.7,-3.9l0,-7.6c0,-1.5 -0.6,-2.8 -1.7,-3.9s-2.5,-1.6 -4.2,-1.6l-10.7,0c-1,0 -2,0.2 -2.9,0.7l0,-9c0,-1 -0.8,-1.4 -1.8,-1.4s-1.8,0.5 -1.8,1.4l0,25.3c0,0.9 0.9,1.4 1.8,1.4c0.7,0 1.5,-0.3 1.7,-0.8c0.9,0.5 1.9,0.8 3,0.8l10.7,0c1.6,0.2 3,-0.3 4.2,-1.4m-2,-4.5c0,0.7 0.1,1.5 -0.5,2s-0.9,0.5 -1.7,0.5l-10.7,0c-0.8,0 -1.5,0 -2,-0.4c-0.6,-0.5 -0.9,-1.1 -0.9,-1.8l0,-6.5c0,-0.8 0.3,-1.4 0.9,-1.9s1.2,-0.8 2,-0.8l10.7,0c0.8,0 1.2,0.3 1.7,0.8s0.5,1.1 0.5,1.9l0,6.2z" class="st1"/>
 </g>
</svg>